<svg width="581" height="580" viewBox="0 0 581 580" fill="none" xmlns="http://www.w3.org/2000/svg">
<path fill-rule="evenodd" clip-rule="evenodd" d="M241.675 338.35V339.821L240.156 338.35H241.675Z" fill="#053EEA"/>
<path fill-rule="evenodd" clip-rule="evenodd" d="M241.699 339.821L240.181 338.35L241.699 338.35L241.699 339.821Z" fill="#053EEA"/>
<path fill-rule="evenodd" clip-rule="evenodd" d="M241.675 339.821V338.35H240.156L241.675 339.821Z" fill="#053EEA"/>
<path fill-rule="evenodd" clip-rule="evenodd" d="M444.674 580.002C444.674 490.895 418.449 407.905 373.325 338.329H580.01V580.002H444.674ZM241.671 339.793L240.16 338.329C178.27 278.534 93.4964 241.66 0 241.66V338.329C133.466 338.329 241.671 446.535 241.671 580.002H343.173C343.173 486.08 304.354 401.098 241.671 339.793ZM0 580.002V430.165C85.4155 430.165 154.669 497.248 154.669 580.002H0Z" fill="#053EEA"/>
<path fill-rule="evenodd" clip-rule="evenodd" d="M241.671 0H0V135.337C89.1161 135.337 172.096 161.543 241.671 206.678V0Z" fill="#053EEA"/>
</svg>
